<svg xmlns="http://www.w3.org/2000/svg" viewBox="0 0 942 1080">
	<rect width="942" height="1080" fill="#000" />
	<path
		fill="#fff"
		d="M617.208 414.577C577.523 412.478 580.656 373.644 585.878 333.761C611.987 189.971 632.874 154.286 657.938 154.286C683.002 154.286 708.066 184.723 752.973 267.638L755.062 264.49L629.741 0C622.43 32.5364 608.854 123.848 595.277 193.12C573.346 302.274 570.213 384.14 536.794 399.883C505.463 414.577 481.443 387.289 462.645 346.356C407.295 210.962 403.117 173.178 425.049 158.484C445.936 144.84 483.532 155.335 564.991 197.318L566.035 196.268L315.392 45.1312C327.925 76.6181 366.565 158.484 393.718 223.557C436.537 326.414 476.222 399.883 460.557 431.37C443.847 464.956 409.384 451.312 368.654 425.073C246.466 343.207 223.49 312.77 231.845 289.679C241.244 264.49 278.84 253.994 372.831 243.499V240.35L80.4146 253.994C107.568 271.837 184.849 321.166 242.288 360C336.279 424.023 408.339 459.708 412.517 495.394C416.694 530.029 378.053 543.673 334.191 543.673C187.982 543.673 150.386 532.128 145.164 506.939C140.987 482.799 165.007 453.411 236.022 391.487L234.978 389.388L0 563.615C32.3747 563.615 123.233 560.466 194.248 560.466C307.038 560.466 383.275 551.02 409.384 579.359C434.448 606.647 405.206 633.936 368.654 662.274C246.466 743.09 210.958 752.536 192.16 735.743C173.361 716.851 178.583 678.018 205.736 587.755H202.603L101.302 863.79C129.499 844.898 202.603 792.42 262.131 752.536C356.122 689.563 415.65 638.134 451.157 648.63C486.665 659.125 481.443 700.058 462.645 739.942C407.295 876.385 380.142 903.673 356.122 900.525C331.058 896.327 312.259 859.592 287.195 768.28L284.062 770.379L349.856 1055.86H350.9C364.477 1024.37 396.851 940.408 424.004 876.385C467.867 771.429 491.887 696.91 525.306 683.265C558.725 669.621 577.523 708.455 585.878 752.536C611.987 899.475 609.898 936.21 585.878 946.706C562.902 957.201 528.439 937.259 455.335 880.583L668.381 1080H669.426C662.115 1047.46 643.317 957.201 629.741 887.93C608.854 778.776 583.789 702.157 605.721 672.77C628.696 642.332 665.248 663.324 694.49 696.91C797.88 801.866 816.678 835.452 801.013 857.493C785.348 879.534 747.752 881.633 653.76 873.236V876.385L942 922.566C917.98 900.525 856.364 834.402 805.191 786.122C691.357 679.067 663.16 630.787 665.248 597.201C667.337 566.764 708.066 547.872 756.106 546.822V543.673H545.149C609.898 478.601 657.938 428.222 695.534 389.388C797.88 285.481 832.344 268.688 854.275 282.332C876.206 295.977 879.339 334.81 872.029 428.222H874.117L914.847 138.542C891.871 161.633 831.299 227.755 782.215 279.184C704.933 361.05 653.76 416.676 617.208 414.577Z"
	/>
</svg>
